{
   "accessors" : [
      {
         "bufferView" : 0,
         "byteOffset" : 0,
         "componentType" : 5123,
         "count" : 3258,
         "max" : [ 600 ],
         "min" : [ 0 ],
         "name" : "buffer-0-group-0-mesh-0-indices",
         "type" : "SCALAR"
      },
      {
         "bufferView" : 2,
         "byteOffset" : 0,
         "componentType" : 5126,
         "count" : 601,
         "max" : [ 2.107002019882202, 0.9944850206375122, 9.59766960144043 ],
         "min" : [ -0.02214300073683262, -1.005516052246094, -10.72965145111084 ],
         "name" : "buffer-0-group-0-mesh-0-position",
         "type" : "VEC3"
      },
      {
         "bufferView" : 2,
         "byteOffset" : 7212,
         "componentType" : 5126,
         "count" : 601,
         "max" : [ 0.9994999766349792, 1, 0.9767000079154968 ],
         "min" : [ -0.9994999766349792, -1, -0.9977999925613403 ],
         "name" : "buffer-0-group-0-mesh-0-normal",
         "type" : "VEC3"
      },
      {
         "bufferView" : 0,
         "byteOffset" : 6516,
         "componentType" : 5123,
         "count" : 480,
         "max" : [ 101 ],
         "min" : [ 0 ],
         "name" : "buffer-0-group-1-mesh-0-indices",
         "type" : "SCALAR"
      },
      {
         "bufferView" : 2,
         "byteOffset" : 14424,
         "componentType" : 5126,
         "count" : 102,
         "max" : [ 8.389240264892578, 2.20948600769043, 9.299098014831543 ],
         "min" : [ -6.304111003875732, -2.222476959228516, -2.161938905715942 ],
         "name" : "buffer-0-group-1-mesh-0-position",
         "type" : "VEC3"
      },
      {
         "bufferView" : 2,
         "byteOffset" : 15648,
         "componentType" : 5126,
         "count" : 102,
         "max" : [ 1, 0.9487000107765198, 0.9376000165939331 ],
         "min" : [ -1, -0.9478999972343445, -0.9376000165939331 ],
         "name" : "buffer-0-group-1-mesh-0-normal",
         "type" : "VEC3"
      },
      {
         "bufferView" : 0,
         "byteOffset" : 7476,
         "componentType" : 5123,
         "count" : 660,
         "max" : [ 160 ],
         "min" : [ 0 ],
         "name" : "buffer-0-group-2-mesh-0-indices",
         "type" : "SCALAR"
      },
      {
         "bufferView" : 2,
         "byteOffset" : 16872,
         "componentType" : 5126,
         "count" : 161,
         "max" : [ 1.615460991859436, 0.5675140023231506, 9.59766960144043 ],
         "min" : [ 0, -0.5785459876060486, 0 ],
         "name" : "buffer-0-group-2-mesh-0-position",
         "type" : "VEC3"
      },
      {
         "bufferView" : 2,
         "byteOffset" : 18804,
         "componentType" : 5126,
         "count" : 161,
         "max" : [ 0.9965000152587891, 0.9965000152587891, 0.9767000079154968 ],
         "min" : [ -0.9965000152587891, -0.9965000152587891, -0.9977999925613403 ],
         "name" : "buffer-0-group-2-mesh-0-normal",
         "type" : "VEC3"
      }
   ],
   "asset" : {
      "generator" : "Obj2GltfConverter",
      "version" : "2.0"
   },
   "bufferViews" : [
      {
         "buffer" : 0,
         "byteLength" : 8796,
         "byteOffset" : 0,
         "byteStride" : 0,
         "name" : "buffer-0-bufferview-ushort",
         "target" : 34963
      },
      {
         "buffer" : 0,
         "byteLength" : 1,
         "byteOffset" : 0,
         "name" : "buffer-0-bufferview-vec2"
      },
      {
         "buffer" : 0,
         "byteLength" : 20736,
         "byteOffset" : 8796,
         "byteStride" : 12,
         "name" : "buffer-0-bufferview-vec3",
         "target" : 34962
      },
      {
         "buffer" : 0,
         "byteLength" : 1,
         "byteOffset" : 0,
         "name" : "buffer-0-bufferview-vec4"
      }
   ],
   "buffers" : [
      {
         "byteLength" : 29532,
         "name" : "buffer-0",
         "uri" : "Tomahawk Missile.bin"
      }
   ],
   "materials" : [
      {
         "alphaMode" : "OPAQUE",
         "doubleSided" : true,
         "name" : "Material",
         "pbrMetallicRoughness" : {
            "baseColorFactor" : [ 0.8, 0.8, 0.8, 1 ],
            "metallicFactor" : 0,
            "roughnessFactor" : 0.9362692745505611
         }
      },
      {
         "alphaMode" : "OPAQUE",
         "doubleSided" : true,
         "name" : "Material.001",
         "pbrMetallicRoughness" : {
            "baseColorFactor" : [ 1, 0.052156, 0.057484, 1 ],
            "metallicFactor" : 0,
            "roughnessFactor" : 0.8870573320949267
         }
      },
      {
         "alphaMode" : "OPAQUE",
         "doubleSided" : true,
         "name" : "Material.002",
         "pbrMetallicRoughness" : {
            "baseColorFactor" : [ 0.018849, 0.018849, 0.018849, 1 ],
            "metallicFactor" : 0,
            "roughnessFactor" : 0.982214873324043
         }
      }
   ],
   "meshes" : [
      {
         "name" : "buffer-0-mesh-0",
         "primitives" : [
            {
               "attributes" : {
                  "NORMAL" : 2,
                  "POSITION" : 1
               },
               "indices" : 0,
               "material" : 0,
               "mode" : 4
            },
            {
               "attributes" : {
                  "NORMAL" : 5,
                  "POSITION" : 4
               },
               "indices" : 3,
               "material" : 1,
               "mode" : 4
            },
            {
               "attributes" : {
                  "NORMAL" : 8,
                  "POSITION" : 7
               },
               "indices" : 6,
               "material" : 2,
               "mode" : 4
            }
         ]
      }
   ],
   "nodes" : [
      {
         "mesh" : 0,
         "name" : "node-0"
      }
   ],
   "scenes" : [
      {
         "name" : "scene-0",
         "nodes" : [ 0 ]
      }
   ]
}
